<?xml version="1.0" encoding="UTF-8" standalone="no"?>
<svg width="260px" height="280px" viewBox="0 0 26 28" version="1.1" xmlns="http://www.w3.org/2000/svg" xmlns:xlink="http://www.w3.org/1999/xlink">
    <!-- Generator: Sketch 39.1 (31720) - http://www.bohemiancoding.com/sketch -->
    <title>Fill 1</title>
    <desc>Created with Sketch.</desc>
    <defs></defs>
    <g id="Page-1" stroke="none" stroke-width="1" fill="none" fill-rule="evenodd">
        <g id="Fill-1" fill="#FFFFFF">
            <path d="M21.0462,17.564 L20.2382,17.564 L17.7892,18.329 C17.8432,18.298 17.8982,18.267 17.9522,18.235 L25.4332,13.916 C24.9872,13.143 23.9982,12.877 23.2252,13.324 L21.9032,14.087 L20.1672,15.973 C20.2032,15.911 20.2392,15.85 20.2732,15.788 L24.9372,7.708 C24.1652,7.262 23.1772,7.526 22.7302,8.299 L21.6082,10.242 L21.0472,12.744 L21.0472,12.717 C21.0472,12.697 21.0462,12.676 21.0462,12.655 L21.0462,2.483 C20.1532,2.483 19.4292,3.206 19.4302,4.098 L19.4292,7.061 L20.1952,9.511 C20.1662,9.46 20.1372,9.407 20.1062,9.357 L14.7032,0 C13.9312,0.446 13.6662,1.435 14.1122,2.208 L15.9522,5.394 L17.8432,7.137 C17.8382,7.133 17.8312,7.129 17.8252,7.126 C17.8212,7.124 17.8182,7.121 17.8142,7.119 L7.7072,1.284 C7.2612,2.057 7.5262,3.045 8.2982,3.491 L12.1092,5.691 L14.6222,6.255 L14.6152,6.255 C14.6042,6.255 14.5932,6.253 14.5822,6.253 L2.1942,6.253 C2.1942,7.145 2.9172,7.868 3.8102,7.868 L8.9262,7.868 L11.3872,7.1 C11.3752,7.106 11.3622,7.112 11.3502,7.119 L0.0002,13.672 C0.4472,14.445 1.4342,14.709 2.2072,14.264 L7.2602,11.346 L9.0072,9.45 C9.0002,9.462 8.9912,9.473 8.9842,9.484 L2.0722,21.457 C2.8452,21.903 3.8332,21.638 4.2802,20.865 L7.5562,15.191 L8.1212,12.677 C8.1202,12.69 8.1182,12.703 8.1182,12.717 L8.1192,27.26 C9.0112,27.26 9.7352,26.535 9.7342,25.644 L9.7342,12.717 L9.7362,12.717 C9.7362,10.04 11.9062,7.869 14.5842,7.869 C16.3362,7.869 17.8702,8.799 18.7222,10.191 L18.8492,10.411 C19.2102,11.079 19.4192,11.841 19.4292,12.652 L19.4302,12.782 C19.4192,13.588 19.2132,14.345 18.8562,15.01 L18.7132,15.257 C18.3142,15.905 17.7662,16.452 17.1162,16.851 L16.8832,16.985 C16.2072,17.35 15.4332,17.56 14.6112,17.564 L12.9662,17.564 C12.9662,18.456 13.6902,19.18 14.5822,19.18 L14.5842,19.18 L14.5842,19.181 C14.5932,19.181 14.6022,19.18 14.6112,19.18 L22.6622,19.18 C22.6622,18.287 21.9382,17.564 21.0462,17.564"></path>
        </g>
    </g>
</svg>
